{
    "asset" : {
        "generator" : "Khronos glTF Blender I/O v3.4.49",
        "version" : "2.0"
    },
    "scene" : 0,
    "scenes" : [
        {
            "name" : "Scene",
            "nodes" : [
                9
            ]
        }
    ],
    "nodes" : [
        {
            "mesh" : 0,
            "name" : "Uni_armchair_pouf_model_Uni_armchair_01_lambert2_0"
        },
        {
            "children" : [
                0
            ],
            "name" : "Uni_armchair_pouf_model_Uni_armchair_01"
        },
        {
            "mesh" : 1,
            "name" : "Uni_armchair_pouf_model_Uni_armchair_02_Fabric1_0"
        },
        {
            "children" : [
                2
            ],
            "name" : "Uni_armchair_pouf_model_Uni_armchair_02"
        },
        {
            "mesh" : 2,
            "name" : "Uni_armchair_pouf_model_Uni_armchair_03_Black_Metall_0"
        },
        {
            "children" : [
                4
            ],
            "name" : "Uni_armchair_pouf_model_Uni_armchair_03"
        },
        {
            "children" : [
                1,
                3,
                5
            ],
            "name" : "group1",
            "scale" : [
                0.10000000149011612,
                0.09999999403953552,
                0.09999999403953552
            ]
        },
        {
            "children" : [
                6
            ],
            "name" : "RootNode"
        },
        {
            "children" : [
                7
            ],
            "name" : "9ac738c578ee48f9ad4236bc1b9a0989.fbx",
            "rotation" : [
                0.70710688829422,
                0,
                0,
                0.7071066498756409
            ],
            "scale" : [
                0.009999999776482582,
                0.010000000707805157,
                0.010000000707805157
            ]
        },
        {
            "children" : [
                8
            ],
            "name" : "Sketchfab_model",
            "rotation" : [
                -0.70710688829422,
                0,
                0,
                0.7071066498756409
            ]
        }
    ],
    "materials" : [
        {
            "doubleSided" : true,
            "name" : "lambert2",
            "pbrMetallicRoughness" : {
                "baseColorFactor" : [
                    0,
                    0,
                    0,
                    1
                ],
                "metallicFactor" : 0,
                "roughnessFactor" : 0.6000000238418579
            }
        },
        {
            "doubleSided" : true,
            "name" : "Fabric1",
            "pbrMetallicRoughness" : {
                "baseColorTexture" : {
                    "index" : 0
                },
                "metallicFactor" : 0
            }
        },
        {
            "doubleSided" : true,
            "name" : "Black_Metall",
            "pbrMetallicRoughness" : {
                "baseColorFactor" : [
                    0,
                    0,
                    0,
                    1
                ],
                "metallicFactor" : 0,
                "roughnessFactor" : 0.6000000238418579
            }
        }
    ],
    "meshes" : [
        {
            "name" : "Uni_armchair_pouf_model_Uni_armchair_01_lambert2_0",
            "primitives" : [
                {
                    "attributes" : {
                        "POSITION" : 0,
                        "TEXCOORD_0" : 1,
                        "NORMAL" : 2
                    },
                    "indices" : 3,
                    "material" : 0
                }
            ]
        },
        {
            "name" : "Uni_armchair_pouf_model_Uni_armchair_02_Fabric1_0",
            "primitives" : [
                {
                    "attributes" : {
                        "POSITION" : 4,
                        "TEXCOORD_0" : 5,
                        "NORMAL" : 6
                    },
                    "indices" : 7,
                    "material" : 1
                }
            ]
        },
        {
            "name" : "Uni_armchair_pouf_model_Uni_armchair_03_Black_Metall_0",
            "primitives" : [
                {
                    "attributes" : {
                        "POSITION" : 8,
                        "TEXCOORD_0" : 9,
                        "NORMAL" : 10
                    },
                    "indices" : 11,
                    "material" : 2
                }
            ]
        }
    ],
    "textures" : [
        {
            "sampler" : 0,
            "source" : 0
        }
    ],
    "images" : [
        {
            "bufferView" : 8,
            "mimeType" : "image/jpeg",
            "name" : "Image_0"
        }
    ],
    "accessors" : [
        {
            "bufferView" : 0,
            "componentType" : 5126,
            "count" : 2658,
            "max" : [
                66.5447998046875,
                575.7744750976562,
                -427.84979248046875
            ],
            "min" : [
                8.16189956665039,
                515.5847778320312,
                -530.33642578125
            ],
            "type" : "VEC3"
        },
        {
            "bufferView" : 1,
            "componentType" : 5126,
            "count" : 2658,
            "type" : "VEC2"
        },
        {
            "bufferView" : 2,
            "componentType" : 5126,
            "count" : 2658,
            "type" : "VEC3"
        },
        {
            "bufferView" : 3,
            "componentType" : 5123,
            "count" : 15936,
            "type" : "SCALAR"
        },
        {
            "bufferView" : 4,
            "componentType" : 5126,
            "count" : 31490,
            "max" : [
                492.00048828125,
                641.63671875,
                453.03759765625
            ],
            "min" : [
                -450.2214050292969,
                11.23169994354248,
                -453.45440673828125
            ],
            "type" : "VEC3"
        },
        {
            "bufferView" : 5,
            "componentType" : 5126,
            "count" : 31490,
            "type" : "VEC2"
        },
        {
            "bufferView" : 6,
            "componentType" : 5126,
            "count" : 31490,
            "type" : "VEC3"
        },
        {
            "bufferView" : 7,
            "componentType" : 5123,
            "count" : 184608,
            "type" : "SCALAR"
        },
        {
            "bufferView" : 9,
            "componentType" : 5126,
            "count" : 16223,
            "max" : [
                447.2843933105469,
                468.0185852050781,
                454.07879638671875
            ],
            "min" : [
                -447.2843933105469,
                0.01899999938905239,
                -422.9180908203125
            ],
            "type" : "VEC3"
        },
        {
            "bufferView" : 10,
            "componentType" : 5126,
            "count" : 16223,
            "type" : "VEC2"
        },
        {
            "bufferView" : 11,
            "componentType" : 5126,
            "count" : 16223,
            "type" : "VEC3"
        },
        {
            "bufferView" : 12,
            "componentType" : 5123,
            "count" : 80544,
            "type" : "SCALAR"
        }
    ],
    "bufferViews" : [
        {
            "buffer" : 0,
            "byteLength" : 31896,
            "byteOffset" : 0,
            "target" : 34962
        },
        {
            "buffer" : 0,
            "byteLength" : 21264,
            "byteOffset" : 31896,
            "target" : 34962
        },
        {
            "buffer" : 0,
            "byteLength" : 31896,
            "byteOffset" : 53160,
            "target" : 34962
        },
        {
            "buffer" : 0,
            "byteLength" : 31872,
            "byteOffset" : 85056,
            "target" : 34963
        },
        {
            "buffer" : 0,
            "byteLength" : 377880,
            "byteOffset" : 116928,
            "target" : 34962
        },
        {
            "buffer" : 0,
            "byteLength" : 251920,
            "byteOffset" : 494808,
            "target" : 34962
        },
        {
            "buffer" : 0,
            "byteLength" : 377880,
            "byteOffset" : 746728,
            "target" : 34962
        },
        {
            "buffer" : 0,
            "byteLength" : 369216,
            "byteOffset" : 1124608,
            "target" : 34963
        },
        {
            "buffer" : 0,
            "byteLength" : 778364,
            "byteOffset" : 1493824
        },
        {
            "buffer" : 0,
            "byteLength" : 194676,
            "byteOffset" : 2272188,
            "target" : 34962
        },
        {
            "buffer" : 0,
            "byteLength" : 129784,
            "byteOffset" : 2466864,
            "target" : 34962
        },
        {
            "buffer" : 0,
            "byteLength" : 194676,
            "byteOffset" : 2596648,
            "target" : 34962
        },
        {
            "buffer" : 0,
            "byteLength" : 161088,
            "byteOffset" : 2791324,
            "target" : 34963
        }
    ],
    "samplers" : [
        {
            "magFilter" : 9729,
            "minFilter" : 9987
        }
    ],
    "buffers" : [
        {
            "byteLength" : 2952412,
            "uri" : "data:application/octet-stream;base64,"
        }
    ]
}
